<?xml version="1.0" encoding="utf-8"?>
<svg id="master-artboard" viewBox="0 0 1403.9866943359375 473.1640930175781" version="1.1" xmlns="http://www.w3.org/2000/svg" x="0px" y="0px" style="enable-background:new 0 0 1400 980;" width="1403.9866943359375px" height="473.1640930175781px"><defs><style id="ee-google-fonts">@import url(https://fonts.googleapis.com/css?family=Montserrat:400,700);</style><path id="text-path-0" d="M 778.8464965820312 213.4612274169922 A 100 18 0 0 1 988.3533935546875 213.4612274169922 A 100 18 0 0 1 778.8464965820312 213.4612274169922 Z" style="fill: none; stroke: red; stroke-width: 2;"/><path id="text-path-1" d="M 664.5464477539062 37.96122741699219 A 100 19 0 0 1 876.5812377929688 37.96122741699219 A 100 19 0 0 1 664.5464477539062 37.96122741699219" style="fill: none; stroke: red; stroke-width: 2;"/><path id="text-path-2" d="M 765.3650512695312 211.70851135253906 A 100 17 0 0 1 991.5017700195312 211.70851135253906 A 100 17 0 0 1 765.3650512695312 211.70851135253906" style="fill: none; stroke: red; stroke-width: 2;"/><path id="path-1" d="M 765.3650512695312 211.70851135253906 A 100 17 0 0 1 991.5017700195312 211.70851135253906 A 100 17 0 0 1 765.3650512695312 211.70851135253906" style="fill: none; stroke: red; stroke-width: 2;"/></defs><rect id="ee-background" x="0" y="0" width="1403.9866943359375" height="473.1640930175781" style="fill: white; fill-opacity: 0; pointer-events: none;"/>


<g transform="matrix(2.8629856109619145, 0, 0, 2.8629856109619145, -1840.5582372921403, -903.3723657352039)"><g data-item-type="text" data-item="Business" id="logo__item--business" class="logo__item" transform="matrix(1.0000000000000002, 0, 0, 1.0000000000000002, 4.871806849277846, 0.4824911355972006)">
                <g class="logo__item__inner" transform="matrix(1.9318156242370603, 0, 0, 1.9318156242370603, 662.4474889620885, 417.55253727441095)">
                    <path d="M 18.110000610351562 -23.44576644897461 L 18.110000610351562 -19.055767059326172 L 7.739999771118164 -19.055767059326172 L 7.739999771118164 -14.2257661819458 L 17.600000381469727 -14.2257661819458 L 17.600000381469727 -9.8457670211792 L 7.739999771118164 -9.8457670211792 L 7.739999771118164 -1.0757665634155273 L 2.75 -1.0757665634155273 L 2.75 -23.44576644897461 L 18.110000610351562 -23.44576644897461 ZM 41.363853454589844 -15.155766487121582 L 35.3238525390625 -2.9357666969299316 L 32.34385681152344 -2.9357666969299316 L 26.323854446411133 -15.155766487121582 L 26.323854446411133 -1.0757665634155273 L 21.33385467529297 -1.0757665634155273 L 21.33385467529297 -23.44576644897461 L 28.08385467529297 -23.44576644897461 L 33.84385681152344 -11.155766487121582 L 39.64385223388672 -23.44576644897461 L 46.363853454589844 -23.44576644897461 L 46.363853454589844 -1.0757665634155273 L 41.363853454589844 -1.0757665634155273 L 41.363853454589844 -15.155766487121582 ZM 58.0616340637207 -19.575767517089844 C 57.228302001953125 -19.575767517089844 56.571632385253906 -19.37576675415039 56.09163284301758 -18.975765228271484 C 55.61163330078125 -18.58243179321289 55.37163543701172 -18.06243133544922 55.37163543701172 -17.415767669677734 C 55.37163543701172 -16.762432098388672 55.66496658325195 -16.242433547973633 56.25163269042969 -15.855766296386719 C 56.83829879760742 -15.4757661819458 58.19496536254883 -15.022433280944824 60.321632385253906 -14.495766639709473 C 62.44163513183594 -13.9757661819458 64.08830261230469 -13.19243335723877 65.26163482666016 -12.145766258239746 C 66.43496704101562 -11.099100112915039 67.02163696289062 -9.575766563415527 67.02163696289062 -7.575766563415527 C 67.02163696289062 -5.5690999031066895 66.27163696289062 -3.9424331188201904 64.77163696289062 -2.6957664489746094 C 63.26496887207031 -1.44243323802948 61.28496551513672 -0.8157665729522705 58.831634521484375 -0.8157665729522705 C 55.29163360595703 -0.8157665729522705 52.10163497924805 -2.1290998458862305 49.261634826660156 -4.755766868591309 L 52.241634368896484 -8.405766487121582 C 54.64830017089844 -6.292433261871338 56.878299713134766 -5.235766410827637 58.93163299560547 -5.235766410827637 C 59.844966888427734 -5.235766410827637 60.564964294433594 -5.432433128356934 61.09163284301758 -5.825766563415527 C 61.61163330078125 -6.219099998474121 61.87163543701172 -6.7524333000183105 61.87163543701172 -7.425766468048096 C 61.87163543701172 -8.099100112915039 61.594966888427734 -8.63243293762207 61.04163360595703 -9.025766372680664 C 60.48830032348633 -9.419099807739258 59.38829803466797 -9.819099426269531 57.741634368896484 -10.2257661819458 C 55.141632080078125 -10.8457670211792 53.23830032348633 -11.652433395385742 52.03163146972656 -12.645766258239746 C 50.82496643066406 -13.639100074768066 50.22163391113281 -15.19576644897461 50.22163391113281 -17.315765380859375 C 50.22163391113281 -19.435768127441406 50.98496627807617 -21.072433471679688 52.511634826660156 -22.225765228271484 C 54.038299560546875 -23.379100799560547 55.94163513183594 -23.955764770507812 58.22163391113281 -23.955764770507812 C 59.7149658203125 -23.955764770507812 61.20829772949219 -23.699100494384766 62.70163345336914 -23.185768127441406 C 64.1949691772461 -22.67243194580078 65.49829864501953 -21.949100494384766 66.61163330078125 -21.015766143798828 L 64.08163452148438 -17.365768432617188 C 62.141632080078125 -18.839099884033203 60.13496780395508 -19.575767517089844 58.0616340637207 -19.575767517089844 ZM 85.63542175292969 -23.44576644897461 C 89.0687484741211 -23.44576644897461 91.56875610351562 -22.779098510742188 93.13542175292969 -21.44576644897461 C 94.70208740234375 -20.11243438720703 95.48542022705078 -18.06243133544922 95.48542022705078 -15.295766830444336 C 95.48542022705078 -12.5357666015625 94.68208312988281 -10.515766143798828 93.0754165649414 -9.235766410827637 C 91.46208190917969 -7.955766677856445 89.00208282470703 -7.315766334533691 85.69541931152344 -7.315766334533691 L 82.71541595458984 -7.315766334533691 L 82.71541595458984 -1.0757665634155273 L 77.72541809082031 -1.0757665634155273 L 77.72541809082031 -23.44576644897461 L 85.63542175292969 -23.44576644897461 M 86.0754165649414 -11.635766983032227 C 87.74208068847656 -11.635766983032227 88.87541961669922 -11.972433090209961 89.47541809082031 -12.645766258239746 C 90.0687484741211 -13.319099426269531 90.36541748046875 -14.299099922180176 90.36541748046875 -15.585766792297363 C 90.36541748046875 -16.879100799560547 89.97541809082031 -17.795764923095703 89.19541931152344 -18.335765838623047 C 88.42208862304688 -18.882434844970703 87.21208190917969 -19.155765533447266 85.56541442871094 -19.155765533447266 L 82.71541595458984 -19.155765533447266 L 82.71541595458984 -11.635766983032227 L 86.0754165649414 -11.635766983032227 ZM 101.52525329589844 -9.685766220092773 C 101.52525329589844 -9.685766220092773 101.52525329589844 -9.332433700561523 101.52525329589844 -8.62576675415039 C 101.52525329589844 -7.925766468048096 101.92525482177734 -7.1324334144592285 102.72525024414062 -6.245766639709473 C 103.52525329589844 -5.359099864959717 104.548583984375 -4.915766716003418 105.79524993896484 -4.915766716003418 C 107.048583984375 -4.915766716003418 108.07525634765625 -5.359099864959717 108.87525177001953 -6.245766639709473 C 109.67525482177734 -7.1324334144592285 110.07525634765625 -8.27910041809082 110.07525634765625 -9.685766220092773 C 110.07525634765625 -11.092432975769043 109.67525482177734 -12.242433547973633 108.87525177001953 -13.135766983032227 C 108.07525634765625 -14.0357666015625 107.048583984375 -14.485766410827637 105.79524993896484 -14.485766410827637 C 104.548583984375 -14.485766410827637 103.52525329589844 -14.0357666015625 102.72525024414062 -13.135766983032227 C 101.92525482177734 -12.242433547973633 101.52525329589844 -11.092432975769043 101.52525329589844 -9.685766220092773 M 114.9052505493164 -9.685766220092773 C 114.9052505493164 -9.685766220092773 114.9052505493164 -9.062433242797852 114.9052505493164 -7.815766334533691 C 114.9052505493164 -6.562433242797852 114.04191589355469 -5.082433223724365 112.31525421142578 -3.3757665157318115 C 110.58191680908203 -1.6690998077392578 108.40858459472656 -0.8157665729522705 105.79524993896484 -0.8157665729522705 C 103.18192291259766 -0.8157665729522705 101.01191711425781 -1.6690998077392578 99.2852554321289 -3.3757665157318115 C 97.55858612060547 -5.082433223724365 96.69525146484375 -7.185766696929932 96.69525146484375 -9.685766220092773 C 96.69525146484375 -12.179100036621094 97.55858612060547 -14.2857666015625 99.2852554321289 -16.005767822265625 C 101.01191711425781 -17.719100952148438 103.18192291259766 -18.575767517089844 105.79524993896484 -18.575767517089844 C 108.40858459472656 -18.575767517089844 110.58191680908203 -17.719100952148438 112.31525421142578 -16.005767822265625 C 114.04191589355469 -14.2857666015625 114.9052505493164 -12.179100036621094 114.9052505493164 -9.685766220092773 ZM 126.51310729980469 -14.065766334533691 C 125.07977294921875 -14.065766334533691 124.01310729980469 -13.559100151062012 123.31310272216797 -12.545766830444336 C 122.60643768310547 -11.53243350982666 122.25310516357422 -10.19576644897461 122.25310516357422 -8.5357666015625 L 122.25310516357422 -1.0757665634155273 L 117.4531021118164 -1.0757665634155273 L 117.4531021118164 -18.295764923095703 L 122.25310516357422 -18.295764923095703 L 122.25310516357422 -16.015766143798828 C 122.87310791015625 -16.72243309020996 123.64643859863281 -17.322433471679688 124.57310485839844 -17.815765380859375 C 125.49977111816406 -18.302433013916016 126.44310760498047 -18.555767059326172 127.40310668945312 -18.575767517089844 L 127.44310760498047 -14.065766334533691 L 126.51310729980469 -14.065766334533691 ZM 135.3350067138672 -14.835766792297363 L 135.3350067138672 -7.125766754150391 C 135.3350067138672 -6.465766429901123 135.5050048828125 -5.949100017547607 135.84500122070312 -5.575766563415527 C 136.1850128173828 -5.202433109283447 136.5916748046875 -5.015766620635986 137.06500244140625 -5.015766620635986 C 137.95834350585938 -5.015766620635986 138.7150115966797 -5.419099807739258 139.3350067138672 -6.225766658782959 L 141.125 -2.8657665252685547 C 139.6316680908203 -1.4990999698638916 138.05833435058594 -0.8157665729522705 136.40499877929688 -0.8157665729522705 C 134.75167846679688 -0.8157665729522705 133.35501098632812 -1.3624331951141357 132.2150115966797 -2.4557666778564453 C 131.07501220703125 -3.542433261871338 130.5050048828125 -5.022433280944824 130.5050048828125 -6.895766735076904 L 130.5050048828125 -14.835766792297363 L 128.48500061035156 -14.835766792297363 L 128.48500061035156 -18.295764923095703 L 130.5050048828125 -18.295764923095703 L 130.5050048828125 -23.44576644897461 L 135.3350067138672 -23.44576644897461 L 135.3350067138672 -18.295764923095703 L 139.49501037597656 -18.295764923095703 L 139.49501037597656 -14.835766792297363 L 135.3350067138672 -14.835766792297363 ZM 157.3148956298828 -1.0757665634155273 L 152.79490661621094 -1.0757665634155273 L 152.79490661621094 -3.155766487121582 C 151.5615692138672 -1.595766544342041 150.0315704345703 -0.8157665729522705 148.20489501953125 -0.8157665729522705 C 146.38490295410156 -0.8157665729522705 144.8549041748047 -1.345766544342041 143.61489868164062 -2.405766487121582 C 142.37490844726562 -3.4591000080108643 141.75489807128906 -4.865766525268555 141.75489807128906 -6.625766754150391 C 141.75489807128906 -8.385766983032227 142.3948974609375 -9.702433586120605 143.67489624023438 -10.575766563415527 C 144.95489501953125 -11.455766677856445 146.70489501953125 -11.895766258239746 148.92489624023438 -11.895766258239746 L 152.51490783691406 -11.895766258239746 L 152.51490783691406 -11.985766410827637 C 152.51490783691406 -13.819099426269531 151.54156494140625 -14.735766410827637 149.59490966796875 -14.735766410827637 C 148.7682342529297 -14.735766410827637 147.8882293701172 -14.572433471679688 146.95489501953125 -14.245766639709473 C 146.02822875976562 -13.912433624267578 145.24490356445312 -13.502432823181152 144.6049041748047 -13.015766143798828 L 142.46490478515625 -16.115766525268555 C 144.7248992919922 -17.755767822265625 147.30490112304688 -18.575767517089844 150.20489501953125 -18.575767517089844 C 152.29823303222656 -18.575767517089844 154.00489807128906 -18.055767059326172 155.3249053955078 -17.015766143798828 C 156.6515655517578 -15.969099998474121 157.3148956298828 -14.315766334533691 157.3148956298828 -12.055766105651855 L 157.3148956298828 -1.0757665634155273 M 152.4748992919922 -7.635766506195068 L 152.4748992919922 -8.465766906738281 L 149.4748992919922 -8.465766906738281 C 147.55490112304688 -8.465766906738281 146.5948944091797 -7.869100093841553 146.5948944091797 -6.675766468048096 C 146.5948944091797 -6.055766582489014 146.82156372070312 -5.582433223724365 147.27490234375 -5.25576639175415 C 147.7349090576172 -4.922432899475098 148.39157104492188 -4.755766868591309 149.24490356445312 -4.755766868591309 C 150.09823608398438 -4.755766868591309 150.8515625 -5.015766620635986 151.50489807128906 -5.5357666015625 C 152.1515655517578 -6.062433242797852 152.4748992919922 -6.762433052062988 152.4748992919922 -7.635766506195068 ZM 165.49276733398438 -1.0757665634155273 L 160.69276428222656 -1.0757665634155273 L 160.69276428222656 -24.815765380859375 L 165.49276733398438 -24.815765380859375 L 165.49276733398438 -1.0757665634155273 ZM 176.96463012695312 -23.44576644897461 L 181.9546356201172 -23.44576644897461 L 181.9546356201172 -1.0757665634155273 L 176.96463012695312 -1.0757665634155273 L 176.96463012695312 -23.44576644897461 ZM 186.46055603027344 -23.44576644897461 L 191.4505615234375 -23.44576644897461 L 191.4505615234375 -1.0757665634155273 L 186.46055603027344 -1.0757665634155273 L 186.46055603027344 -23.44576644897461 ZM 195.95648193359375 -23.44576644897461 L 200.9464874267578 -23.44576644897461 L 200.9464874267578 -1.0757665634155273 L 195.95648193359375 -1.0757665634155273 L 195.95648193359375 -23.44576644897461 ZM 214.9224090576172 -19.12576675415039 L 214.9224090576172 -1.0757665634155273 L 209.93240356445312 -1.0757665634155273 L 209.93240356445312 -19.12576675415039 L 203.60240173339844 -19.12576675415039 L 203.60240173339844 -23.44576644897461 L 221.2624053955078 -23.44576644897461 L 221.2624053955078 -19.12576675415039 L 214.9224090576172 -19.12576675415039 ZM 231.81826782226562 -23.44576644897461 C 235.804931640625 -23.44576644897461 238.86492919921875 -22.469100952148438 240.99826049804688 -20.515766143798828 C 243.131591796875 -18.56243133544922 244.19827270507812 -15.849100112915039 244.19827270507812 -12.37576675415039 C 244.19827270507812 -8.895767211914062 243.15826416015625 -6.142433166503906 241.07826232910156 -4.115766525268555 C 238.99826049804688 -2.089099884033203 235.82493591308594 -1.0757665634155273 231.55825805664062 -1.0757665634155273 L 223.90826416015625 -1.0757665634155273 L 223.90826416015625 -23.44576644897461 L 231.81826782226562 -23.44576644897461 M 232.06826782226562 -5.495766639709473 C 234.3549346923828 -5.495766639709473 236.11160278320312 -6.0690999031066895 237.3382568359375 -7.215766429901123 C 238.56492614746094 -8.369100570678711 239.1782684326172 -10.045766830444336 239.1782684326172 -12.245766639709473 C 239.1782684326172 -14.43910026550293 238.56492614746094 -16.129100799560547 237.3382568359375 -17.315765380859375 C 236.11160278320312 -18.50243377685547 234.228271484375 -19.095767974853516 231.68826293945312 -19.095767974853516 L 228.8982696533203 -19.095767974853516 L 228.8982696533203 -5.495766639709473 L 232.06826782226562 -5.495766639709473 Z" transform="matrix(1, 0, 0, 1, -4.245927333831787, 3.496645927429199)" style="white-space: pre; alignment-baseline: auto; fill: rgb(33, 37, 41); color: rgb(33, 37, 41);"/>
                </g>
            </g><g data-item-type="shape" data-item="Shape" data-logo-item="" id="logo__item--shape_1" class="logo__item">
    <g class="logo__item__inner" transform="translate(641.25 298.20000076293945) scale(1.9447852760736195 1.9447852760736195) rotate(0 0 0)">
        
<g>
	<g>
		<g>
			<path fill="#47a06e" d="M43.2,92C20.7,92,2.5,73.7,2.5,51.2s18.3-40.8,40.8-40.8S84,28.7,84,51.2S65.7,92,43.2,92z M43.2,13     C22.1,13,5,30.1,5,51.2s17.2,38.3,38.3,38.3s38.3-17.2,38.3-38.3S64.3,13,43.2,13z" data-part-id="logo__item--shape_1__0"/>
		</g>
	</g>
</g>

    </g>
</g></g></svg>